<svg xmlns="http://www.w3.org/2000/svg" width="55" height="55" viewBox="0 0 55 55">
  <defs>
    <linearGradient id="kiira-care-a" x1="50%" x2="50%" y1="0%" y2="100%">
      <stop offset="0%" stop-color="#0052E2"/>
      <stop offset="100%" stop-color="#0089FF"/>
    </linearGradient>
  </defs>
  <path fill="url(#kiira-care-a)" d="M34.0696388,221.664 C38.0047976,207.448921 51.823443,203.570648 66.4920664,207.375005 C73.4822161,209.187924 82.7961194,212.55679 86.1613358,218.761859 C89.8579271,225.577944 87.1748958,235.493275 85.1149879,242.934335 C81.1798291,257.149414 66.6095766,263.742738 51.9409532,259.938381 C37.2723297,256.134023 30.1344801,235.879079 34.0696388,221.664 Z M69.7158945,224.340535 C69.2702871,212.99893 51.8635318,212.99893 51.417706,224.340535 C51.3654042,225.653815 51.1502324,226.788349 50.8478446,227.804326 C43.9354713,228.458982 45.7069841,236.329791 38.1028772,241.267258 C42.6443015,242.899727 45.5190648,242.715518 47.7792074,241.112219 L47.7792074,241.112219 L47.7792074,241.916623 C47.7835741,254.666531 73.3543931,254.666531 73.3543931,241.916623 L73.3543931,241.916623 L73.3543931,241.112219 C75.6146846,242.715532 78.4891502,242.89792 83.0307233,241.267258 C75.4261202,236.329791 77.1981292,228.460943 70.2857559,227.804326 C69.983388,226.788349 69.768231,225.653815 69.7158945,224.340535 Z M53.3472429,225.790046 C53.5947424,221.019585 59.1636692,215.992236 59.1095263,224.368741 L59.1095263,224.368741 L56.5591429,225.82102 L60.5075519,230.500238 L64.4559609,225.82102 L61.9036471,224.366921 C62.1527801,216.826714 67.2904192,220.266973 67.6636039,225.790046 C67.9981243,230.711831 70.5098482,232.679752 70.5098482,236.132746 L70.5098482,236.132746 L70.5098482,240.733736 C70.5098482,251.575565 50.5009987,251.575565 50.5009987,240.733736 L50.5009987,240.733736 L50.5009987,236.132746 C50.5009987,232.679892 53.0920115,230.715563 53.3472429,225.790046 Z M56.3931752,222.01275 C55.7847633,222.01275 55.2883921,222.491331 55.2883921,223.082092 C55.2883921,223.672852 55.782835,224.151434 56.3931752,224.151434 C57.0035155,224.151434 57.4979583,223.672852 57.4979583,223.082092 C57.4979583,222.491331 57.0035155,222.01275 56.3931752,222.01275 Z M64.7404253,222.01275 C64.1300851,222.01275 63.6356422,222.491331 63.6356422,223.082092 C63.6356422,223.672852 64.1300851,224.151434 64.7404253,224.151434 C65.3488372,224.151434 65.8452084,223.672852 65.8452084,223.082092 C65.8452084,222.491331 65.3507656,222.01275 64.7404253,222.01275 Z" transform="translate(-33 -206)"/>
</svg>
