<svg xmlns="http://www.w3.org/2000/svg" width="63" height="18" viewBox="0 0 63 18">
  <g fill="none">
    <path fill="#FFF" d="M5.58440156 13.1711292L5.58440156 12.7649181C4.47766838 13.5745579 3.06997144 13.6675807.846153846 12.8432105 4.56968758 10.3498708 3.70222377 6.37524125 7.08703355 6.04465092 7.235105 5.53159924 7.34046905 4.95867817 7.36607989 4.29549321 7.58438919-1.43183107 16.1080254-1.43183107 16.3262278 4.29549321 16.3518556 4.95867817 16.4572124 5.53159924 16.6052741 6.04465092 19.9900839 6.37623161 19.1223771 10.3498708 22.8461538 12.8432105 20.6222634 13.6666681 19.2147122 13.574565 18.1079061 12.7649181L18.1079061 13.1711292C18.1079061 19.6096236 5.58653984 19.6096236 5.58653984 13.1711292L5.58440156 13.1711292zM9.79099357 3.13033206C10.0909368 3.13033206 10.3339239 3.36613115 10.3339239 3.65720156 10.3339239 3.94827197 10.0909368 4.18407106 9.79099357 4.18407106 9.49105034 4.18407106 9.24806328 3.94827197 9.24806328 3.65720156 9.24806328 3.36613115 9.49199799 3.13033206 9.79099357 3.13033206zM13.8989328 3.13033206C14.1988761 3.13033206 14.4418631 3.36613115 14.4418631 3.65720156 14.4418631 3.94827197 14.1979284 4.18407106 13.8989328 4.18407106 13.5989896 4.18407106 13.3560026 3.94827197 13.3560026 3.65720156 13.3560026 3.36613115 13.5989896 3.13033206 13.8989328 3.13033206zM12.5302353 4.27709381L13.7831252 5.01212675 11.8449146 7.3774275 9.90670401 5.01212675 11.1586463 4.27801342C11.1852242.0437690285 8.45152739 2.58504664 8.33003386 4.99646969 8.20474487 7.48627237 6.93285826 8.47922237 6.93285826 10.2246073L6.93285826 12.5503645C6.93285826 18.0308072 16.7548813 18.0308072 16.7548813 12.5503645L16.7548813 10.2246073C16.7548813 8.47915163 15.5219163 7.48438597 15.3577057 4.99646969 15.1745153 2.20460838 12.6525307.465590034 12.5290933 4.27801342L12.5302353 4.27709381zM36.589209 15.2075195C36.9544434 15.2075195 37.2435872 15.1079102 37.4566406 14.9086914 37.669694 14.7094727 37.7762207 14.4742839 37.7762207 14.203125 37.7762207 13.9596354 37.7153483 13.7092285 37.5936035 13.4519043 37.4718587 13.1945801 37.2892415 12.8943685 37.0457519 12.5512695L37.0457519 12.5512695 33.5926269 7.60400391 36.589209 4.76513672C36.9599772 4.41097005 37.1453613 4.05403646 37.1453613 3.69433594 37.1453613 3.39550781 37.0360677 3.14233398 36.8174805 2.93481445 36.5988932 2.72729492 36.3125163 2.62353516 35.9583496 2.62353516 35.6871907 2.62353516 35.469987 2.68164062 35.3067383 2.79785156 35.1434896 2.9140625 34.9456543 3.09391276 34.7132324 3.33740234L34.7132324 3.33740234 29.8738769 8.38427734 29.8738769 4.11767578C29.8738769 3.61409505 29.7590495 3.23917643 29.5293945 2.99291992 29.2997396 2.74666341 28.999528 2.62353516 28.6287598 2.62353516 28.2524577 2.62353516 27.955013 2.74804688 27.7364258 2.99707031 27.5178385 3.24609375 27.4085449 3.61962891 27.4085449 4.11767578L27.4085449 4.11767578 27.4085449 13.1655273C27.4085449 13.5528971 27.4168457 13.8489583 27.4334473 14.0537109 27.4500488 14.2584635 27.4970866 14.4383138 27.5745605 14.5932617 27.6797038 14.7814128 27.8291178 14.9308268 28.0228027 15.0415039 28.2164876 15.152181 28.4184733 15.2075195 28.6287598 15.2075195 28.9939941 15.2075195 29.2928223 15.0843913 29.5252441 14.8381348 29.757666 14.5918783 29.8738769 14.2141927 29.8738769 13.7050781L29.8738769 13.7050781 29.8738769 11.1899414 31.8909668 9.25585938 34.804541 13.7382812C34.9207519 13.9375 35.0535644 14.1588542 35.2029785 14.4023438 35.3523926 14.6458333 35.5350098 14.8409017 35.7508301 14.9875488 35.9666504 15.134196 36.24611 15.2075195 36.589209 15.2075195zM40.5288184 15.2075195C40.8608496 15.2075195 41.1347754 15.0913086 41.3505957 14.8588867 41.566416 14.6264648 41.6743262 14.2833659 41.6743262 13.8295898L41.6743262 13.8295898 41.6743262 7.28027344C41.6743262 6.87630208 41.566416 6.5608724 41.3505957 6.33398438 41.1347754 6.10709635 40.8608496 5.99365234 40.5288184 5.99365234 40.1967871 5.99365234 39.9270117 6.10709635 39.7194922 6.33398438 39.5119727 6.5608724 39.4082129 6.8984375 39.4082129 7.34667969L39.4082129 7.34667969 39.4082129 13.8295898C39.4082129 14.2722982 39.5119727 14.6126302 39.7194922 14.8505859 39.9270117 15.0885417 40.1967871 15.2075195 40.5288184 15.2075195zM44.7506543 4.93945312C45.0550163 4.93945312 45.3178743 4.84122721 45.5392285 4.64477539 45.7605827 4.44832357 45.8712598 4.17578125 45.8712598 3.82714844 45.8712598 3.46744792 45.7578158 3.19352214 45.5309277 3.00537109 45.3040397 2.81722005 45.0439486 2.72314453 44.7506543 2.72314453 44.4462923 2.72314453 44.1792839 2.8269043 43.9496289 3.03442383 43.719974 3.24194336 43.6051465 3.5061849 43.6051465 3.82714844 43.6051465 4.1813151 43.717207 4.45524089 43.9413281 4.64892578 44.1654492 4.84261068 44.4352246 4.93945312 44.7506543 4.93945312zM44.725752 15.2075195C45.0577832 15.2075195 45.331709 15.0913086 45.5475293 14.8588867 45.7633496 14.6264648 45.8712598 14.2833659 45.8712598 13.8295898L45.8712598 13.8295898 45.8712598 7.28027344C45.8712598 6.87630208 45.7633496 6.5608724 45.5475293 6.33398438 45.331709 6.10709635 45.0577832 5.99365234 44.725752 5.99365234 44.3937207 5.99365234 44.1239453 6.10709635 43.9164258 6.33398438 43.7089062 6.5608724 43.6051465 6.8984375 43.6051465 7.34667969L43.6051465 7.34667969 43.6051465 13.8295898C43.6051465 14.2722982 43.7089062 14.6126302 43.9164258 14.8505859 44.1239453 15.0885417 44.3937207 15.2075195 44.725752 15.2075195zM48.906084 15.2075195C49.2381152 15.2075195 49.512041 15.0926921 49.7278613 14.8630371 49.9436816 14.6333822 50.0515918 14.2888997 50.0515918 13.8295898L50.0515918 13.8295898 50.0515918 11.9370117C50.0515918 11.2563477 50.0737272 10.6794434 50.117998 10.2062988 50.1622689 9.7331543 50.2425098 9.32503255 50.3587207 8.98193359 50.4749316 8.63883464 50.6381803 8.38012695 50.8484668 8.20581055 51.0587533 8.03149414 51.3299121 7.94433594 51.6619434 7.94433594 51.9054329 7.94433594 52.186276 7.99552409 52.5044727 8.09790039 52.8226693 8.20027669 53.0232715 8.25146484 53.1062793 8.25146484 53.3276335 8.25146484 53.5337695 8.16153971 53.7246875 7.98168945 53.9156055 7.80183919 54.0110645 7.57356771 54.0110645 7.296875 54.0110645 6.90397135 53.7869434 6.58854167 53.3387012 6.35058594 52.890459 6.11263021 52.4283822 5.99365234 51.9524707 5.99365234 51.4765592 5.99365234 51.0961068 6.11263021 50.8111133 6.35058594 50.5261198 6.58854167 50.2480436 6.93994141 49.9768848 7.40478516 49.9602832 6.93994141 49.8689746 6.58854167 49.702959 6.35058594 49.5369434 6.11263021 49.2657845 5.99365234 48.8894824 5.99365234 48.1534798 5.99365234 47.7854785 6.50276693 47.7854785 7.52099609L47.7854785 7.52099609 47.7854785 13.8295898C47.7854785 14.2833659 47.8906217 14.6264648 48.1009082 14.8588867 48.3111947 15.0913086 48.5795866 15.2075195 48.906084 15.2075195zM61.5532129 15.2075195C61.8299056 15.2075195 62.0775456 15.1120605 62.2961328 14.9211426 62.5147201 14.7302246 62.6240137 14.5185547 62.6240137 14.2861328 62.6240137 14.1533203 62.553457 13.8558757 62.4123438 13.3937988 62.2712305 12.931722 62.2006738 12.4876302 62.2006738 12.0615234 62.2062077 11.6077474 62.2103581 11.1954753 62.213125 10.824707 62.2158919 10.4539388 62.2172754 10.0029297 62.2172754 9.47167969 62.2172754 8.63053385 62.099681 7.95540365 61.8644922 7.44628906 61.6293034 6.93717448 61.2267155 6.56502279 60.6567285 6.32983398 60.0867415 6.09464518 59.3037012 5.97705078 58.3076074 5.97705078 57.4166569 5.97705078 56.6723535 6.09879557 56.0746973 6.34228516 55.477041 6.58577474 55.0370996 6.89567057 54.7548731 7.27197266 54.4726465 7.64827474 54.3315332 8.03564453 54.3315332 8.43408203 54.3315332 8.68863932 54.4242253 8.89754232 54.6096094 9.06079102 54.7949935 9.22403971 55.0149642 9.30566406 55.2695215 9.30566406 55.5517481 9.30566406 55.7357487 9.25447591 55.8215234 9.15209961 55.9072982 9.04972331 56.0539453 8.83805339 56.2614648 8.51708984 56.4689844 8.1961263 56.7180078 7.95540365 57.0085352 7.79492188 57.2990625 7.6344401 57.7320866 7.55419922 58.3076074 7.55419922 58.9772038 7.55419922 59.4185287 7.69392904 59.631582 7.97338867 59.8446354 8.25284831 59.9649968 8.69140625 59.992666 9.2890625 59.5167546 9.42740885 59.0754297 9.54500326 58.6686914 9.6418457 58.2619531 9.73868815 57.7735905 9.84521484 57.2036035 9.96142578 56.6336165 10.0776367 56.2766829 10.1523438 56.1328027 10.1855469 55.4466048 10.3349609 54.907054 10.6282552 54.5141504 11.0654297 54.1212468 11.5026042 53.9247949 12.0310872 53.9247949 12.6508789 53.9247949 13.1101888 54.0437728 13.5362956 54.2817285 13.9291992 54.5196843 14.3221029 54.8586328 14.6333822 55.2985742 14.8630371 55.7385156 15.0926921 56.2490137 15.2075195 56.8300684 15.2075195 57.4664616 15.2075195 58.040599 15.1009928 58.5524805 14.8879395 59.064362 14.6748861 59.5942285 14.355306 60.1420801 13.9291992 60.3966374 14.3442383 60.63736 14.6610514 60.8642481 14.8796387 61.0911361 15.0982259 61.320791 15.2075195 61.5532129 15.2075195zM57.6103418 13.7216797C57.1897689 13.7216797 56.8494369 13.6013184 56.5893457 13.3605957 56.3292546 13.119873 56.199209 12.8279622 56.199209 12.4848633 56.199209 12.152832 56.3098861 11.8941243 56.5312402 11.7087402 56.7525944 11.5233561 56.9850163 11.3988444 57.2285059 11.3352051 57.4719954 11.2715658 57.9105534 11.1719564 58.5441797 11.036377 59.177806 10.9007975 59.6606348 10.7721354 59.992666 10.6503906L59.992666 10.6503906 59.992666 10.9741211C59.992666 11.7599284 59.8902897 12.3243815 59.6855371 12.6674805 59.5084538 12.9773763 59.2303776 13.2305501 58.8513086 13.427002 58.4722396 13.6234538 58.058584 13.7216797 57.6103418 13.7216797z"/>
    <path fill="#FFD3D6" d="M40.5537207,4.93945312 C40.8580827,4.93945312 41.1209407,4.84122721 41.3422949,4.64477539 C41.5636491,4.44832357 41.6743262,4.17578125 41.6743262,3.82714844 C41.6743262,3.46744792 41.5608822,3.19352214 41.3339941,3.00537109 C41.1071061,2.81722005 40.847015,2.72314453 40.5537207,2.72314453 C40.2493587,2.72314453 39.9823503,2.8269043 39.7526953,3.03442383 C39.5230404,3.24194336 39.4082129,3.5061849 39.4082129,3.82714844 C39.4082129,4.1813151 39.5202734,4.45524089 39.7443945,4.64892578 C39.9685156,4.84261068 40.238291,4.93945312 40.5537207,4.93945312 Z"/>
  </g>
</svg>
