<svg xmlns="http://www.w3.org/2000/svg" width="55" height="55" viewBox="0 0 55 55">
  <defs>
    <linearGradient id="messaging-a" x1="50%" x2="50%" y1="0%" y2="100%">
      <stop offset="0%" stop-color="#0052E2"/>
      <stop offset="100%" stop-color="#0089FF"/>
    </linearGradient>
  </defs>
  <path fill="url(#messaging-a)" d="M34.0696388,300.664 C38.0047976,286.448921 51.823443,282.570648 66.4920664,286.375005 C73.4822161,288.187924 82.7961194,291.55679 86.1613358,297.761859 C89.8579271,304.577944 87.1748958,314.493275 85.1149879,321.934335 C81.1798291,336.149414 66.6095766,342.742738 51.9409532,338.938381 C37.2723297,335.134023 30.1344801,314.879079 34.0696388,300.664 Z M71.8568507,305.230169 C71.3348915,305.230169 70.9121486,305.637917 70.9121486,306.141361 C70.9121486,306.644806 71.3348915,307.052553 71.8568507,307.052553 C72.3575579,307.052553 72.83818,307.245026 73.1924327,307.586731 C73.5466854,307.928435 73.7462548,308.39202 73.7462548,308.874937 L73.7462548,308.874937 L73.7462548,324.292306 L70.5590568,321.829813 C70.3913684,321.701106 70.182367,321.631628 69.9674466,321.631628 L69.9674466,321.631628 L56.7416178,321.631628 C56.2409106,321.631628 55.7602885,321.439155 55.4060358,321.097451 C55.0517831,320.755747 54.8522136,320.292161 54.8522136,319.809244 L54.8522136,319.809244 L54.8522136,318.898052 C54.8522136,318.394608 54.4294708,317.98686 53.9075116,317.98686 C53.3855524,317.98686 52.9628095,318.394608 52.9628095,318.898052 L52.9628095,318.898052 L52.9628095,319.809244 C52.9628095,321.821827 54.6550203,323.454012 56.7416178,323.454012 L56.7416178,323.454012 L69.6343068,323.454012 L74.1014628,326.900505 C74.2691512,327.029212 74.4769765,327.098765 74.6909689,327.098765 C74.9413074,327.098765 75.1822019,327.003092 75.3593343,326.832243 C75.5364667,326.661405 75.6356589,326.42905 75.6356589,326.187585 L75.6356589,326.187585 L75.6356589,308.874937 C75.6356589,307.907937 75.2376748,306.980824 74.5291634,306.297416 C73.820652,305.614007 72.8594138,305.230169 71.8568507,305.230169 Z M66.2082787,297.901235 L49.1541479,297.901235 C47.0614772,297.901235 45.3643411,299.535889 45.3643411,301.551517 L45.3643411,301.551517 L45.3643411,319.802929 C45.3643411,320.307135 45.7883144,320.7155 46.3117928,320.7155 C46.5332691,320.7155 46.7476206,320.640085 46.9181619,320.503199 L46.9181619,320.503199 L52.3400111,316.152647 L66.2082787,316.152647 C67.2137599,316.152647 68.1777655,315.768199 68.8883695,315.083785 C69.5989734,314.399372 69.9980856,313.470828 69.9980856,312.502364 L69.9980856,312.502364 L69.9980856,301.551517 C69.9980856,300.583053 69.5989431,299.654538 68.8883695,298.970096 C68.1777958,298.285653 67.2137599,297.901235 66.2082787,297.901235 L66.2082787,297.901235 Z M66.2082787,299.726376 C66.7104433,299.726376 67.1924643,299.919268 67.547748,300.26149 C67.9030318,300.603711 68.1031821,301.067998 68.1031821,301.551645 L68.1031821,301.551645 L68.1031821,312.502493 C68.1031821,312.98617 67.90305,313.450445 67.547748,313.792648 C67.1924461,314.134852 66.710413,314.327634 66.2082787,314.327634 L66.2082787,314.327634 L51.9965031,314.327634 C51.7750267,314.327634 51.5606753,314.40292 51.390134,314.539806 L51.390134,314.539806 L47.2592445,317.855722 L47.2592445,301.551517 C47.2592445,300.543134 48.1072214,299.726376 49.1541479,299.726376 L49.1541479,299.726376 L66.2082787,299.726376 Z M56.1755812,303.435768 C55.8812184,303.293761 55.5322793,303.308648 55.2521728,303.474704 C54.9720602,303.64193 54.8011487,303.93739 54.8011487,304.254603 L54.8011487,304.254603 L54.8011487,309.751598 C54.8011487,310.25779 55.2260423,310.667766 55.7506876,310.667766 C55.8978507,310.667766 56.0438381,310.635699 56.1755812,310.572714 L56.1755812,310.572714 L61.8726323,307.824217 C62.1954743,307.668454 62.3996171,307.351241 62.3996171,307.004241 C62.3996171,306.656098 62.1954652,306.338867 61.8726323,306.184265 L61.8726323,306.184265 L56.1755812,303.435768 Z M56.7001657,305.736593 L59.3243641,307.003188 L56.7001657,308.269784 L56.7001657,305.736593 Z" transform="translate(-33 -285)"/>
</svg>
