<svg xmlns="http://www.w3.org/2000/svg" width="55" height="55" viewBox="0 0 55 55">
  <defs>
    <linearGradient id="visists-a" x1="50%" x2="50%" y1="0%" y2="100%">
      <stop offset="0%" stop-color="#0052E2"/>
      <stop offset="100%" stop-color="#0089FF"/>
    </linearGradient>
  </defs>
  <path fill="url(#visists-a)" d="M34.0696388,379.664 C38.0047976,365.448921 51.823443,361.570648 66.4920664,365.375005 C73.4822161,367.187924 82.7961194,370.55679 86.1613358,376.761859 C89.8579271,383.577944 87.1748958,393.493275 85.1149879,400.934335 C81.1798291,415.149414 66.6095766,421.742738 51.9409532,417.938381 C37.2723297,414.134023 30.1344801,393.879079 34.0696388,379.664 Z M66.1591094,375 L54.8392966,375 L54.6238169,375.004728 C52.1237349,375.11464 50.1226415,377.127171 50.1226415,379.582914 L50.1226415,379.582914 L50.1226415,403.417086 L50.127507,403.626456 C50.2406269,406.055648 52.3118885,408 54.8392966,408 L54.8392966,408 L66.1607034,408 L66.3761831,407.995272 C68.8762651,407.88536 70.8773585,405.872829 70.8773585,403.417086 L70.8773585,403.417086 L70.8773585,379.584463 L70.8724929,379.374851 C70.7593718,376.942961 68.6880672,375 66.1591094,375 L66.1591094,375 Z M66.1607034,376.833204 C67.7220294,376.833204 68.9922506,378.067408 68.9922506,379.584463 L68.9922506,379.584463 L68.9906566,403.415537 L68.9854791,403.582887 C68.8961668,405.022321 67.6626085,406.166796 66.1591094,406.166796 L66.1591094,406.166796 L54.8392966,406.166796 L54.6670636,406.161765 C53.1856225,406.074985 52.0077494,404.876405 52.0077494,403.415537 L52.0077494,403.415537 L52.0077494,379.584463 L52.0129269,379.417113 C52.1022392,377.977679 53.3357975,376.833204 54.8392966,376.833204 L54.8392966,376.833204 L66.1607034,376.833204 Z M62.3530997,403.396166 C62.3530997,400.925916 58.5233603,400.925916 58.5233603,403.396166 C58.5233603,405.867945 62.3530997,405.867945 62.3530997,403.396166 Z M62.3945397,377.75 L58.6054603,377.75 L58.4949431,377.756026 C58.0236893,377.807771 57.6585804,378.186426 57.6585804,378.646739 C57.6585804,379.142461 58.0820204,379.543478 58.6054603,379.543478 L58.6054603,379.543478 L62.3945397,379.543478 L62.5050569,379.537452 C62.9763107,379.485707 63.3414196,379.107052 63.3414196,378.646739 C63.3414196,378.151017 62.9179796,377.75 62.3945397,377.75 L62.3945397,377.75 Z" transform="translate(-33 -364)"/>
</svg>
