<svg width="24" height="24" viewBox="0 0 24 24" fill="none" xmlns="http://www.w3.org/2000/svg">
<path d="M8.255 9C9.221 9 10.005 9.783 10.005 10.75V20.25C10.005 20.7141 9.82063 21.1592 9.49244 21.4874C9.16425 21.8156 8.71913 22 8.255 22H3.75C3.28587 22 2.84075 21.8156 2.51256 21.4874C2.18437 21.1592 2 20.7141 2 20.25V10.75C2 9.783 2.784 9 3.75 9H8.255ZM8.255 10.5H3.75C3.6837 10.5 3.62011 10.5263 3.57322 10.5732C3.52634 10.6201 3.5 10.6837 3.5 10.75V20.25C3.5 20.388 3.612 20.5 3.75 20.5H8.255C8.3213 20.5 8.38489 20.4737 8.43178 20.4268C8.47866 20.3799 8.505 20.3163 8.505 20.25V10.75C8.505 10.6837 8.47866 10.6201 8.43178 10.5732C8.38489 10.5263 8.3213 10.5 8.255 10.5ZM6.25 18C6.44002 18.0001 6.62294 18.0722 6.76179 18.202C6.90064 18.3317 6.98507 18.5093 6.99803 18.6989C7.01098 18.8885 6.95148 19.0759 6.83157 19.2233C6.71165 19.3707 6.54025 19.4671 6.352 19.493L6.25 19.5H5.75C5.55998 19.4999 5.37706 19.4278 5.23821 19.298C5.09936 19.1683 5.01493 18.9907 5.00197 18.8011C4.98902 18.6115 5.04852 18.4241 5.16843 18.2767C5.28835 18.1293 5.45975 18.0329 5.648 18.007L5.75 18H6.25ZM19.75 2C20.3201 1.99993 20.869 2.2163 21.2858 2.60537C21.7025 2.99444 21.956 3.52721 21.995 4.096L22 4.25V13.25C22.0001 13.8201 21.7837 14.369 21.3946 14.7858C21.0056 15.2025 20.4728 15.456 19.904 15.495L19.75 15.5H16.004V17.5H17.25C17.44 17.5001 17.6229 17.5722 17.7618 17.702C17.9006 17.8317 17.9851 18.0093 17.998 18.1989C18.011 18.3885 17.9515 18.5759 17.8316 18.7233C17.7117 18.8707 17.5402 18.9671 17.352 18.993L17.25 19H11V17.5H14.504V15.5H11V14H19.75C19.9312 14 20.1063 13.9344 20.2429 13.8152C20.3795 13.6961 20.4684 13.5316 20.493 13.352L20.5 13.25V4.25C20.5 4.05109 20.421 3.86032 20.2803 3.71967C20.1397 3.57902 19.9489 3.5 19.75 3.5H6.25C6.06876 3.50001 5.89366 3.56564 5.75707 3.68477C5.62048 3.80389 5.53165 3.96845 5.507 4.148L5.5 4.25V8H4V4.25C3.99993 3.67987 4.2163 3.13098 4.60537 2.71425C4.99444 2.29751 5.52721 2.04402 6.096 2.005L6.25 2H19.75Z" fill="black"/>
</svg>
